<?xml version="1.0" encoding="UTF-8"?>
<svg xmlns="http://www.w3.org/2000/svg" xmlns:xlink="http://www.w3.org/1999/xlink" version="1.1" viewBox="0 0 1080 1920">
  <!-- Generator: Adobe Illustrator 29.8.2, SVG Export Plug-In . SVG Version: 2.1.1 Build 3)  -->
  <defs>
    <style>
      .st0 {
        fill: none;
      }

      .st1 {
        fill: #abbf91;
      }

      .st2 {
        fill: #dbd0ba;
      }

      .st3 {
        fill: #497d4a;
      }

      .st4 {
        fill: #8da876;
      }

      .st5 {
        fill: #537b5a;
      }

      .st6 {
        fill: #bac9a0;
      }

      .st7 {
        fill: #e3ded4;
      }

      .st8 {
        fill: #efefed;
      }

      .st9 {
        fill: #b1c4a9;
      }

      .st10 {
        fill: #6b925d;
      }

      .st11 {
        fill: #427743;
      }

      .st12 {
        fill: #ced8c9;
      }

      .st13 {
        fill: #2e6033;
      }

      .st14 {
        fill: #d4d6b4;
      }

      .st15 {
        clip-path: url(#clippath-1);
      }

      .st16 {
        clip-path: url(#clippath-3);
      }

      .st17 {
        clip-path: url(#clippath-4);
      }

      .st18 {
        clip-path: url(#clippath-2);
      }

      .st19 {
        clip-path: url(#clippath-6);
      }

      .st20 {
        clip-path: url(#clippath-5);
      }

      .st21 {
        fill: #205027;
      }

      .st22 {
        fill: #d3d9b8;
      }

      .st23 {
        fill: #fff;
      }

      .st24 {
        fill: #3c723f;
      }

      .st25 {
        fill: #437644;
      }

      .st26 {
        fill: #376c3b;
      }

      .st27 {
        fill: #b9c5ad;
      }

      .st28 {
        fill: #a3ba8a;
      }

      .st29 {
        fill: #daccaa;
      }

      .st30 {
        fill: #99a571;
      }

      .st31 {
        clip-path: url(#clippath);
      }

      .st32 {
        fill: #3c703f;
      }
    </style>
    <clipPath id="clippath">
      <path class="st0" d="M159.73,1266.81c-10.83.15-22.57.38-32.96-3.6-12.83-4.91-22.46-12.88-26.19-26.63-.86-3.18-2.44-4.94-5.72-6.07-27.56-9.47-42.66-29.58-47.69-57.61-3.22-17.94.17-34.87,10.95-49.77,6.93-9.57,16.08-16.21,28.08-18.51,1.53-.29,3.46-2.9,3.74-4.67,2.15-13.24,5.75-26.01,12.1-37.85,13.06-24.34,32.48-40.61,60.47-43.87,23.04-2.68,43.81,3.93,61.28,19.7,13.7,12.37,22.79,27.64,25.43,45.79,1.21,8.34,4.65,9.89,12.01,11.73,17.34,4.34,27.26,17.1,31.8,33.97,5.07,18.83.88,36.34-9.16,52.48-4.08,6.55-4.94,12.63-4.13,20.39,2.37,22.59-6.61,40.89-24.49,54.77-13.93,10.81-30.01,16.11-47.42,15.4-9.45-.38-24.37-5.25-28.74-6.4,0,0-.29-3.51-.12-5.56.64-5.47,2.4-8.91,4.69-12.44,11.41-17.6,23.21-34.95,34.88-52.38.83-1.24,2.15-2.41,2.37-3.75.24-1.41-.11-3.58-1.06-4.33-.86-.67-3.3-.41-4.29.39-2.04,1.64-3.63,3.87-5.33,5.92-10.7,12.97-20.53,24.65-31.39,37.25-.9,1.02-2.03,1.68-2.03-.27-.05-27.39-1.49-56.25-1.59-83.64-.13-1.19-.05-4.51-.39-8.11-1-3.71-3.62-3.75-4.71-3.25-1.44.66-1.89,3.15-2.05,5.01-1.81,20.54-3.28,39.87-4.97,60.41-.16,1.99-.69,3.94-1.21,6.77-2.12-2.47-4.61-5.04-5.87-6.76-8.63-11.82-16.45-21.82-25.03-33.68-.88-1.21-2.07-2.33-3.22-3.1-1.13-.76-3.24-1.4-4.01-.8-.34.95-.3,1.81-.18,3.23.32,1.16,1.65,2.34,2.21,3.53,8.91,14.43,18.25,28.77,26.6,43.51,3.69,6.52,6.68,14.4,7.54,21.72,1.19,10.14-.03,20.77-.21,31.07Z"/>
    </clipPath>
    <clipPath id="clippath-1">
      <rect class="st0" x="721.74" y="160.26" width="54.65" height="20"/>
    </clipPath>
    <clipPath id="clippath-2">
      <rect class="st0" x="166.53" y="273.88" width="50.75" height="23.79"/>
    </clipPath>
    <clipPath id="clippath-3">
      <rect class="st0" x="58.75" y="284.42" width="60.94" height="24.23"/>
    </clipPath>
    <clipPath id="clippath-4">
      <rect class="st0" x="940.42" y="370.27" width="48.79" height="23.79"/>
    </clipPath>
    <clipPath id="clippath-5">
      <rect class="st0" x="1034.24" y="380.81" width="58.59" height="24.23"/>
    </clipPath>
    <clipPath id="clippath-6">
      <path class="st0" d="M638.71,1352.54c-.58.06-1.16.12-1.74.18-7.03-2.14-14.95-3.36-21.95-6.34-3.2-3.02-6.36-6.2-8.97-9.97-.12-.36-.72-.9-1.01-1-1.6-12.69-7.25-24.32-9.22-36.85.09-15.88,3.05-32.79,21.25-36.8,2.59-16.83,12.81-48.84,35.83-38.11,8.84,4.78,10.83,19.02,12.52,28.19.36,5.29,2.97,6.79,7.51,6.8,2.91,1.27,5.27,3.53,7.98,4.99.02.41.69.88,1,.97,6.23,9.72,6.96,22.78,1.38,33.51-.75,1.44-.6,4.14.29,5.5,17.21,23.93-10.88,52.43-36.45,48.63"/>
    </clipPath>
  </defs>
  <g id="Lager_2">
    <rect class="st7" x=".5" y="6.25" width="1079" height="1918.93"/>
  </g>
  <g id="Lager_1">
    <path class="st2" d="M1083.44,1123.57h-33.2v46.94h-24.69v-74.98h-40.6v48h-44.96v-107.11h-59.03v19.07h-14.97v71.28h-48.1v52.74h-27.03v-65.73l-35.53-20.34h-54.43v83.89h-50.32v-37.7h-42.79v-40.47s-.26-9.49-7.22-20.69c-6.96-11.2-11.84-12.7-11.84-12.7,0,0-9.08-4.83-19.69-.89-10.61,3.94-18.21,13.58-19.91,16.22s-7.34,12.56-8.17,20.39,0,15.07,0,15.07h-44.08v65.94h-39.41v8.72h-16.55v217.38h665.43v-286.62l-22.91,1.59Z"/>
    <polygon class="st11" points="1088.84 1397.06 610.01 1401.56 589.07 1416.9 1095.2 1416.9 1088.84 1397.06"/>
    <path class="st5" d="M1080.5,1433.06v486.94H.5c0-88.3,0-176.66.47-265.55,39.77-.77,79.09-.72,118.39-1.36,30.3-.49,60.6-1.44,90.87-2.91,48.72-2.36,97.42-5.05,146.1-8.12,30.39-1.92,60.78-4.25,91.07-7.37,39.23-4.04,78.5-8.04,117.48-13.87,49.02-7.32,97.94-15.58,146.59-25.07,55.74-10.87,110.77-24.9,164.13-44.69,27.05-10.03,53.41-21.63,77.48-37.82,10.41-7,20.17-14.77,26.8-25.76,6.33-10.49,5.46-20.2-2.77-29.29-2.22-2.46-4.62-4.76-6.49-7.13,9.15-2.02,17.91-3.79,26.53-6.13,27.3-7.41,54.91-12.54,83.35-11.9Z"/>
    <path class="st5" d="M482.79,1378.89c11.86,2.42,23.31,4.74,35.11,7.15,1.74.4,3.14.72,4.93,1.07,12.17,2.66,23.94,5.33,35.73,7.89,6.28,1.36,12.6,2.54,19.1,4.12,9.77,3.23,19.35,6.14,29.19,9.28,2.36.61,4.45.98,6.73,1.66.63.56,1.03.88,1.49,1.04,38.78,13.47,75.29,32.08,112.33,49.48,22.12,10.39,44.22,20.85,66.64,30.55,9.21,3.99,19.25,6.07,28.68,9.32-1.25.82-2.24,1.43-3.31,1.85-29.36,11.53-59.75,19.73-90.62,25.67-38.84,7.48-77.83,14.34-116.95,20.18-35.18,5.25-70.6,8.96-105.96,12.93-23.3,2.62-46.67,4.56-70.02,6.72-8.06.75-16.15,1.26-24.24,1.52,1.55-7.13,3.12-13.91,4.94-21,.79-2.06,1.33-3.8,1.98-5.86,2.62-6.01,6.68-8.85,13.12-7.5.94.2,1.99,0,2.98-.12,4.55-.51,7.83-3.19,8.01-7.51.16-3.76-1.05-7.56-5.95-9.08-2.93-.91-5.24-3.73-7.94-5.54-2.94-1.98-5.77-4.76-9.03-5.5-11.12-2.5-24.88,10.23-25.59,22.83-2.3,1.42-2.62,4.46-6.45,3.87-25.06-3.85-47.41-13.63-66.76-29.99-3-2.54-5.02-6.25-7.61-9.75-.36-7.74-5.44-11.7-10.79-15.53-11.26-8.07-22.01-16.62-26.74-30.46-.18-.51-.92-.83-1.15-1.48.57-1.36,1.49-2.7,1.15-3.55-2.63-6.74-4.85-13.78-8.51-19.94-2.92-4.92-7.69-8.74-11.76-13.44-2.1-8.39-1.42-9.24,6.15-10.88,2.01-.43,4.34-2.08,5.36-3.84,2.88-5.02,6.14-10.04,3.59-16.52-.91-2.3-.24-5.22-.29-8.28-1.53-9.57-7.67-15.12-17.35-16.12-8.63-.89-17.54,3.98-20.3,12.22-3.05,9.1-7.32,16.76-15.41,22.52-6.19,4.4-7.28,10.9-4.49,16.35,2.8,5.47,7.87,7.17,15.76,5.67-.79.85-1.44,1.35-2.06,1.89-9.61,8.38-16.35,18.41-18.01,31.73-2.67,7.69-5.57,14.95-7.99,22.36-4.01,12.28-7.79,24.63-11.5,37-.6,2.01-1.07,4.52-.39,6.34.83,2.21,2.67,5.09,4.59,5.55,1.87.45,5.42-1.19,6.41-2.94,2.23-3.98,3.63-8.51,4.84-12.95,4.6-16.9,10.69-33.13,20.68-47.76.5,1.47.9,2.85.75,4.18-1.06,9.36-2.23,18.7-3.41,28.46-.27,7.69-.51,14.97-.83,22.66-1.64,13.98-6.26,26.56-12.47,38.98-8.37,12.12-16.54,23.97-25.17,35.79-18.84.7-37.22,1.43-55.97,2.11-1.23.02-1.11.04-2.18.05-.68.01-1.13.05-1.47.05-.73.06-.85.05-1.42.07-1.48.06-2.54.12-3.95.11-1.6.06-8.73.03-9.29,0-29.4-.02-50.83-.45-80.23-.39-1.24,0-3.18-.02-5.46-.03-3.13.13-5.82.16-8.98.12-4.84-.11-9.73-.01-14.11-.04,0-73.35-.4-146.6,0-220.42,28.17-6.22,56.69-13.21,84.67-17.64,23.69-3.75,47.8-4.81,72.21-7.06,2.93,0,5.4.1,7.85-.05,4.65-.28,9.29-.71,14.39-1.01,15.41.42,30.37.76,45.33,1.11.97.02,2.54.13,3.5.23,20.09,2.19,40.18,4.41,60.28,6.54,1.05.11,2.17-.47,3.26-.73,23,3.98,46,7.91,68.98,11.96,5.86,1.03,11.66,2.4,17.83,4.25-.31,4.15.74,7.38,3.99,8.6,7.11,2.68,14.42,4.84,21.74,6.93,1.03.3,3.09-.68,3.64-1.65.55-.97.11-2.83-.45-4.03-1.01-2.16-2.44-4.12-3.29-6.28,10.46,1.96,20.52,4.04,30.61,6.52.5,3.91-.13,8.28,5.17,8.47,7.25.25,14.52.18,21.78.21,2.76,0,4.4-1.21,4.53-4.22,1.08.01,1.81.03,2.87.16"/>
    <path class="st9" d="M158.34,1339.52c-23.93,2.25-48.04,3.32-71.73,7.07-27.98,4.43-56.99,11.46-85.16,17.21-.4-32.35-.18-65.55-.18-98.37,53.73-1.97,107.05,6.71,157.78,26.37.02,16.29-.34,32.01-.7,47.72Z"/>
    <path class="st9" d="M180.13,1338.39c-.48-12.45-.06-24.75,0-37.6,12.57,4.45,25.07,9.34,37.54,14.32,24.95,9.96,49.88,19.97,75.06,30.24-.85.53-1.98,1.11-3.03,1-20.6-2.19-41.19-4.46-61.78-6.71-.66-.07-1.33-.05-2-.07-14.96-.35-30.37-.76-45.78-1.18Z"/>
    <path class="st9" d="M972.09,1451.54c-18.45-12-38.74-18.11-59.59-22.63-11.81-2.56-23.75-4.55-36.25-7.29-18.99-2.7-37.37-4.87-55.74-7.18-1.94-.24-63.95-1.49-65.36-2.16,89.19-.31,238.09-.45,326.81-.77v21.53c-28.44-.18-56.04,4.96-83.35,12.37-8.61,2.34-17.38,4.11-26.53,6.13Z"/>
    <path class="st9" d="M1017.25,1385.53c22.86-12.98,40.66-17.31,64.3-21.03.41,13.7.41,27.39-.06,41.51-33.41.49-66.36.55-99.31.55-1.7,0-3.4-.63-4.74-.98,6.44-1.14,8.56-5.94,10.27-11.32,5.02,0,9.87.48,14.57-.14,4.58-.6,2.88-2.19,7.74-3.49,2.82-3.65,1.96-1.37,7.22-5.1Z"/>
    <path class="st9" d="M648.03,1410.62c4.9.6,9.79,1.24,14.7,1.81,25.7,2.99,51.54,5.09,77.06,9.18,26.84,4.3,53.45,10.15,80.01,16,12.53,2.76,24.35,7.83,34.81,15.64,10.37,7.74,11.89,17.25,3.16,26.68-9.2,9.93-20.94,16.2-33.97,20.68-10-2.97-20.04-5.06-29.25-9.04-22.42-9.7-44.52-20.16-66.64-30.55-37.05-17.4-73.56-36.01-112.33-49.48-.46-.16-.86-.48-1.01-1.01,11.34-.16,22.4-.03,33.46.1Z"/>
    <path class="st9" d="M578.16,1399.56c7.13-1.5,14.44-2.87,21.81-3.8,10.03-1.27,20.11-2.21,30.98-3.33,2.79-.33,4.77-.62,7.07-.84.54.06.75.04,1.35.03,1.14-.1,1.89-.2,3.04-.26,2.46-.25,4.52-.55,7.02-.82,20.44-1.32,40.43-2.67,60.89-3.96,3.98-.35,7.5-.76,11.45-1.05,5.36.09,10.29.06,15.51.3,4.18.52,8.01.89,10.15,5.1.17.38.35.54.57.62,0-.02-.04-.04.04.33,5.74,1.79,11.4,3.22,16.19,4.43,2.59,4,5.04,7.78,6.98,11.51-31.77.16-63.02.41-94.28.58-23.28.13-46.56.15-69.84.22-9.57-2.91-19.15-5.82-28.92-9.04Z"/>
    <path class="st28" d="M817.1,1407.56c2.59-3.65,5.51-7.28,9.56-12.32h105.06c2.81,3.81,5.39,7.3,7.72,11.12-37.8.56-75.35.8-112.91,1.06-2.82.02-5.64.19-8.46.29-.21-.04-.42-.08-.96-.15Z"/>
    <path class="st14" d="M411.63,1569.33c8.08-.62,16.67-.34,24.74-1.09,23.35-2.16,46.72-4.1,70.02-6.72,35.36-3.98,70.78-7.69,105.96-12.93,39.12-5.83,78.11-12.7,116.95-20.18,30.88-5.94,61.26-14.15,90.62-25.67,1.07-.42,2.06-1.03,3.66-1.83,13.25-4.78,25-11.05,34.19-20.98,8.74-9.43,7.21-18.94-3.16-26.68-10.47-7.81-22.29-12.88-34.81-15.64-26.56-5.85-53.17-11.7-80.01-16-25.52-4.09-51.36-6.19-77.06-9.18-4.9-.57-9.8-1.2-14.23-1.84,16.92.2,33.38.42,49.84.67,14.63.22,29.26.42,43.89.73,16.24.35,32.47.81,49.04,1.32,1.93.02,4.37-.03,7.26.09,16.01.82,12.24.41,26.23,1.59,13.36,1.26,38.23,5.24,51.84,6.9,12.15,2.49,24.09,4.48,35.91,7.04,20.84,4.52,41.13,10.63,59.14,22.63,2.32,2.37,4.72,4.67,6.94,7.13,8.22,9.09,9.1,18.8,2.77,29.29-6.63,10.99-16.39,18.76-26.8,25.76-24.07,16.18-50.43,27.78-77.48,37.82-53.36,19.79-108.39,33.82-164.13,44.69-48.65,9.49-97.57,17.74-146.59,25.07-38.98,5.82-78.26,9.83-117.48,13.87-30.29,3.12-60.68,5.45-91.07,7.37-48.68,3.07-97.38,5.76-146.1,8.12-30.27,1.47-60.57,2.42-90.87,2.91-39.3.64-80.08.59-119.86.9-.47-22.96,0-46.75,0-70.24,4.46.02,8.18-.18,13.26-.18,2.86,0,8.78.1,9.83.1,35.29.05,44.61.54,79.9.45,1.21,0,26.16.15,27.36-.43,18.38-.73,33.87-1.67,52.7-1.99"/>
    <path class="st14" d="M363.38,1573.34"/>
    <path class="st14" d="M288.5,1577.68c14.13-.95,27.8-1.87,41.41-2.47"/>
    <path class="st14" d="M289.95,1598.91"/>
    <path class="st14" d="M285.14,1619.51"/>
    <path class="st14" d="M214.35,1581.56c17.19-.94,33.91-1.88,50.79-2.51.82,2.19,1.38,4.09,2.14,5.92"/>
    <polygon class="st5" points="184.01 1582.17 435.87 1567.82 520.15 1480.61 282.46 1355.15 199.29 1354.43 125.89 1535.36 184.01 1582.17"/>
    <path class="st5" d="M335.73,1352.65s139.31,23.93,145.16,25.48,15.76,22.56,15.76,22.56l-130.54,4.83-30.37-52.88Z"/>
    <polygon class="st5" points="263.23 1352.02 232.09 1345.54 232.7 1366.36 265.39 1366.36 263.23 1352.02"/>
    <polygon class="st9" points="718.82 1407.71 1031.76 1406.47 1029.65 1394.05 955.35 1392.63 741.32 1391.33 718.82 1407.71"/>
    <path class="st25" d="M180.03,1300.49c.04,13.15.07,25.52.1,37.9-4.65.37-9.29.8-13.94,1.08-2.45.15-4.91.04-7.85.05-.12-15.72.25-31.43.56-47.62.02-.63.05-1.81.11-2.78.45-8.52.67-14.64.69-23.02,0,0,0-.24,0-.43.07-10.36,1.29-20.79.1-30.94-.86-7.32-4.06-14.76-7.74-21.28-8.35-14.75-17.64-28.96-26.55-43.39-.7-1.13-1.86-2.19-2.01-3.39-.18-1.42.04-3.53.95-4.24.76-.59,3.01.02,4.14.78,1.15.77,1.72,2.39,2.6,3.6,8.58,11.85,17.16,23.71,25.78,35.53,1.26,1.72,2.77,3.25,4.89,5.72.52-2.83,1.05-4.78,1.21-6.77,1.69-20.55,3.27-41.11,5.08-61.65.16-1.85,1.35-4.43,2.79-5.09,1.09-.5,3.34,1.51,5.12,2.74.04.34-.13.2-.4.51-.07,5.77.13,11.23.41,17.02"/>
    <path class="st11" d="M176.79,1230.89c1.06.24,1.27.49,2.03.27,10.69-12.99,21.53-25.59,32.23-38.57,1.69-2.05,3.28-4.28,5.33-5.92.99-.79,3.43-1.06,4.29-.39.95.75,1.3,2.92,1.06,4.33-.22,1.34-1.54,2.51-2.37,3.75-11.67,17.44-23.47,34.78-34.88,52.38-2.29,3.53-3.61,12.88-5.57,17.44"/>
    <polygon class="st22" points="745.15 1289.17 744.97 1342.54 790.17 1343.76 788.95 1289.67 745.15 1289.17"/>
    <path class="st6" d="M745.3,1321.92s4.24-.58,5.75-2.17,2.25-3.96,2.27-5.43.36-4.81,2.72-6.81,4.34-3.83,8.44-2.57,5.88,3.95,7.37,7.31c1.49,3.37,3.05,6.78,3.05,6.78l11.13-.96.29,23.23-1.32,3.4-40.05-2.16.33-20.62Z"/>
    <path class="st32" d="M845.37,1241.35l23.62,18.12-27.27-.06s-5.92-.7-6.11,4.11c-.19,4.81-.11,7.13-.11,7.13l46.92.55-.5-7.69-1.21-2.62-52.94-39.58,34.24-.47.04-5.11-50.71.38s-3.68,3.83,1.31,4.8,7.74,2,10.61,4.09,22.11,16.34,22.11,16.34Z"/>
    <path class="st3" d="M965.92,1371.41l54.83-.06-1.01-31.28s-3.03-24.93-5.51-33.15c-2.48-8.21-3.49-11.18-4.47-13.55s-6.17-11.01-6.17-11.01l-257.49-.08s-1.04,1.01-1,3.5.05,3.38.05,3.38l41.5,1.58-.32,50.56s-1.57,1.55-7.65,1.5-33.72-.27-33.72-.27l-.08,28.49,111.67.61,2.19,19.74,69.88.29,37.29-20.26Z"/>
    <path class="st21" d="M429.79,1201.7c-.52-2.25-1.1-4.5-1.54-6.77-1.57-8.03,1.08-13.69,7.58-16.36,6.6-2.7,15.68-.19,19.62,5.46.65.93,1.17,1.95,2.01,3.58.42,3.32,1.57,6.36-2.72,7.51-2.41,0-4.44.12-6.44-.03-2.5-.18-5.39.11-7.39-1.04-3.43-1.99-4.39-.82-5.87,2.2-1.06,2.16-3.46,3.65-5.26,5.45Z"/>
    <path class="st10" d="M429.82,1201.32c1.92-2.16,4.2-3.29,5.26-5.45,1.48-3.02,2.44-4.19,5.87-2.2,2,1.16,4.89.86,7.39,1.04,2,.15,4.03.04,6.41.41-2.33,7.7-3.4,16.37-13.75,17.42-.49.05-.5,1.31-.93,1.99-6.29,1.51-10.38-2.94-14.37-6.84.98-2,2.74-4.2,4.12-6.38Z"/>
    <path class="st6" d="M861.9,1389.93l26.13-.63.25-.61.39-.37-.51-97.88-22-.11s-4.24-.67-4.26,4.04c-.02,4.72,0,95.55,0,95.55h0"/>
    <path class="st22" d="M971.08,1315.39v27.56l48.66.57s-1.77-22.89-4.65-33.13-7.13-20.76-7.13-20.76h-36.88v25.76Z"/>
    <path class="st6" d="M918.12,1389.71c-8.58.16-17.04.12-25.75-.29-.33-.25-.18-.63-.22-1.21.03-32.94.1-65.3.18-97.67,1.87-.51,16.4-.06,21.89-.25,3.12-.1,4.84.14,4.83,3.46-.08,31.47-.1,62.29-.17,93.76,0,.63-.36,1.25-.77,2.2Z"/>
    <path class="st13" d="M747.92,1391.38l16.3,4.91s2.6,4.46,3.91,6.14,3.88,5.88,3.88,5.88l14.81-.77s3.17-4.56,4.17-5.98,5.22-6,5.22-6l2.72,2.97s.45,1.23,2.67,3.91,4.65,4.18,4.65,4.18l9.1.8s4.18-3.15,6.31-5.93c2.13-2.78,5.01-6.24,5.01-6.24h105.06s3.27,4.71,4.85,6.72,3.9,5.02,6.73,5.27,9.74-.62,9.74-.62c0,0,3.29-4.42,4.49-6.07s3.62-4.45,3.62-4.45c0,0,1.17,5.63,5.42,8.02s12.05,1.21,12.05,1.21c0,0,3.26-1.08,4.47-2.41s2.67-3.43,3.22-4.78,1.42-3.88,1.42-3.88l6.74.15s8.36-.14,11.64-1.04,9.66-2.83,9.66-2.83l-49.5.9-2.74.06c-1.77.04-3.38-1-4.07-2.63l-1.07-2.51s-1.64-3.7-6.05-5.58-9.73-.52-9.73-.52c0,0-4.45,1.61-5.75,4.29s-3.24,7.31-8.21,7.11c-3.47-.14-6.04-.15-7.27-.14-.53,0-1.05-.17-1.47-.49l-1.77-1.33-26.06-.29-.95,1.02c-.61.66-1.66.62-2.22-.08l-.86-1.07-26.13.63s-.83,1.43-4.56,1.5-58.12.04-58.12.04l-2.84.05c-1.63.03-3.13-.87-3.89-2.31s-1.69-3.18-2.46-4.41c-1.48-2.39-5.01-3.95-5.01-3.95,0,0-6.76-2.25-11.17.11s-5.54,5.29-5.54,5.29c0,0-1.3,5.27-6.72,5.27s-13.68-.13-13.68-.13Z"/>
    <path class="st9" d="M816.35,1391.33l42.41.06-1.18-9.49-.43-5.4-.58-4.85-86.78-.3-24.46-.26s-.48,4.99-.51,6.47-.04,8.09.64,9.79,2.46,4.05,2.46,4.05l13.68.13s2.77-.09,4.03-1.18,1.99-2.58,2.34-3.33,1.93-3.77,4.24-5.04,1.76-1.52,5.1-2,5.98.31,5.98.31c0,0,4.65,1.48,6.31,3.93s2.89,5.02,2.89,5.02c0,0,1.05,2.36,3.89,2.31s19.96-.19,19.96-.19Z"/>
    <path class="st9" d="M988.15,1391.01l27.62-.47,1.06-1.74c2.31-3.81,3.6-8.14,3.76-12.59l.17-4.85-95.67-.1c-.68,0-1.24.55-1.24,1.23v12.33c0,2.08-.73,4.1-2.07,5.7l-.86,1.03h6.93s2.59.43,4.18-.67,3.16-2.99,3.66-4.01,1.5-3.72,3.3-4.75,2.47-2,6.44-2.37,6.9,1.04,6.9,1.04c0,0,2.31.68,4.35,3.11s2.27,3.81,2.27,3.81c0,0,.62,3.92,5.77,3.77s23.43-.47,23.43-.47Z"/>
    <path class="st9" d="M881.93,1263.51c29.14-.01,58.29-.41,87.41.14,14.07.27,25.84,6.58,34.09,18.42-2.31.31-4.31.35-6.3.35-83.67.07-167.34.15-251.02-.13-.02-.82-.03-1.28-.04-1.75,0,0-.07-.01.2-.15.45-.71.63-1.27.8-1.84,0,0-.08,0,.17-.09.5-.32.67-.59.75-.92,7.19-10.16,17.65-13.7,29.41-13.87,18.93-.28,37.87-.11,57.74-.13,16.22,0,31.51-.01,46.79-.03Z"/>
    <path class="st22" d="M793.51,1290.52l60.89-.19c1.01,0,1.84.82,1.84,1.85l.35,48c0,1.04-.83,1.88-1.85,1.87l-60.34-.56c-.99,0-1.8-.82-1.82-1.82l-.9-47.25c-.02-1.04.81-1.89,1.83-1.89Z"/>
    <path class="st22" d="M925.19,1289.82l31.74-.19c.53,0,.96.85.96,1.9l.18,49.49c0,1.07-.43,1.94-.97,1.93l-31.46-.58c-.52,0-.94-.84-.95-1.88l-.47-48.71c-.01-1.07.42-1.95.96-1.95Z"/>
    <ellipse class="st24" cx="825.27" cy="1342.35" rx="13.42" ry="19.07"/>
    <ellipse class="st32" cx="862" cy="1218.29" rx="2.64" ry="2.56"/>
    <path class="st32" d="M384,1356.51c.44-1.91.64-3.92,1.35-5.73,2.4-6.17,4.52-12.51,7.55-18.37,7.78-15.06,8.52-31.48,10.01-47.8.38-4.11,1.22-8.17,2.42-12.51,11.97.53,23.36,1.32,34.98,2.44.95,3.56,1.49,6.85,2.42,10.02,7.61,25.8,9.85,52.4,11.8,79.31-.4,1.25-.45,3.01-.76,3.06-4.46.65-8.95,1.18-13.45,1.46-1.05.07-2.4-.65-3.19-1.43-.9-.89-1.34-2.26-2.09-3.81-1.7-18.97-2.65-37.67-9.33-54.13-7.92,17.55-16.04,35.53-24.51,53.49-5.97-2.02-11.59-4.01-17.21-6.01Z"/>
    <path class="st1" d="M440.32,1274.55c-11.4-.79-23.19-1.57-34.98-2.44.71-7.72,2-15.7,3.09-23.33.23-1.63.4-3.26.49-5.66-4.39-3.75-8.68-6.73-12.97-9.71,6.2-12.55,14.22-23.06,29.75-25.71,4.37,3.88,7.71,8.31,14.37,6.84,2.84,2.99,5.31,5.94,7.87,9.16.38.47.68.66.94.89-.04.03-.05.12-.05.12,1.29,3.39,2.58,6.78,3.76,10.73-3.03,3.12-4.31,7.98-10.12,7.27.21,1.94.4,3.79.27,5.9-1.1,8.71-1.64,17.49-2.41,25.94Z"/>
    <path class="st10" d="M395.95,1233.41c4.54,2.74,8.57,5.97,12.92,9.25-1.98,4.08-4.71,7.64-5.9,11.66-2.84,9.54-4.78,19.35-7.45,28.95-.99,3.57-2.43,7.31-4.68,10.17-2.5,3.18-6.8,2.12-7.63-1.86-.72-3.42-.38-7.24.28-10.73,1.51-7.94,4.12-15.71,5.15-23.7,1.06-8.21,2.98-16.28,7.32-23.75Z"/>
    <path class="st24" d="M821.77,1321.28c-.37-1.03-.77-2.05-1.1-3.09-1.19-3.69-.26-6.49,2.65-8.11,2.95-1.64,7.35-.96,9.52,1.47.36.4.66.85,1.14,1.57.38,1.53,1.09,2.9-.86,3.68-1.13.14-2.08.3-3.03.34-1.19.05-2.53.35-3.53-.08-1.72-.74-2.11-.14-2.63,1.36-.38,1.07-1.42,1.91-2.17,2.85Z"/>
    <path class="st24" d="M821.77,1321.05c.49-.93,1.45-2.04,2.1-3.01,1.1-1.51,1.19-1.59,2.16-1.4.55.13,2.16.34,3.14.34,1.38.21,5.06-4.23,3.88,1.35-.6,2.86-1.06,5.72-4.05,7-.97.44-1.71,1.23-2.68,1.64-1.75.59-3.54-.2-4.62-1.57-.59-1.07-.4-3.03,0-4.19l.07-.16Z"/>
    <path class="st10" d="M497.37,1275.25c-7.3-.82-11.91-4.66-17.2-9.5-11.56-6.7-36.13-5.09-37.71-23.05,5.81.71,6.97-4.47,10.12-7.27,4.64,6.1,10.4,11.34,18.35,14.94,6.26,2.84,13.13,3.94,18.95,7.35,5.04,2.95,7.48,3.41,8.25,12.59.17,2.06-.08,3.6-.76,4.93Z"/>
    <path class="st21" d="M384,1356.51c5.83,1.75,11.14,3.68,17.21,6.01.84.82,1.33,1.61,1.9,2.36.74.38,1.3.5,1.87.63,0,0,0,0,0,0,1.26,2.05,2.69,4.01,3.7,6.17.56,1.21,1,3.06.45,4.03-.55.97-2.61,1.95-3.64,1.65-7.31-2.09-14.63-4.25-21.74-6.93-3.25-1.22-4.29-4.45-3.67-8.36,1.15-1.95,2.54-3.75,3.92-5.54Z"/>
    <path class="st21" d="M435.91,1371.12c-.32-2.79-.6-5.17-.85-7.95.66.76,1.1,2.12,2,3.01.79.78,2.14,1.5,3.19,1.43,4.5-.28,8.99-.81,13.45-1.46.3-.04.36-1.8.76-3.06.33,3.15,1.75,5.29,5.23,6.67,2.6,1.03,4.63,3.47,7.13,5.55.44,3.27-1.2,4.49-3.96,4.48-7.26-.02-14.52.05-21.78-.21-5.3-.19-4.67-4.56-5.17-8.47Z"/>
    <path class="st9" d="M184.94,1583s19.21-28.5,22.75-34.48,13.05-30.08,13.95-41.12,1.37-22.64,1.37-22.64c0,0,13.34.85,22.16.24s22.28-.93,22.28-.93c0,0,14.12,60.44,15.02,66.3s2.97,18.72,4.37,22.86,3.49,16.19,3.51,19.4-1.47,6.21-1.47,6.21l-13.73,4.69s-7.56-15.09-10.02-24.49-2.58-20.57-11.79-34.3c-7.06-10.52-9.06-13.55-9.06-13.55,0,0-9.92,23.7-18.57,35.14s-23.37,28.45-24.2,29.03-5.09,2.8-5.09,2.8l-11.43-12.54s-1.06-1.18-.05-2.61Z"/>
    <path class="st26" d="M208.98,1444.58c1.67-12.95,8.41-22.98,18.02-31.36.62-.54,1.27-1.04,2.31-2.05,3.8-1.89,7.19-3.28,10.78-4.39,3.38,2.06,6.44,4.13,9.8,5.5,2.12.86,5,1.81,6.29-1.69,3.95,4.31,8.71,8.13,11.63,13.05,3.66,6.17,5.87,13.2,8.51,19.94.33.85-.58,2.2-1.47,3.76-2.61,1.37-4.66,2.29-7.7,3.66.64,5.15.6,11.83.94,17.74-.56,5.63-.02,9.98-.63,15.33-13.4.51-26.41,1.04-39.79,1.52-1.14-.08-1.91-.09-2.85-.32-.72-.31-1.25-.41-1.79-.51,1.14-9.35,2.31-18.69,3.37-28.05.15-1.33-.25-2.72-.86-4.52-5.82-2.84-11.18-5.23-16.54-7.62Z"/>
    <path class="st29" d="M209.08,1444.62c5.35,2.02,10.6,4.66,16.07,7.39-9.53,15.08-15.61,31.39-20.21,48.28-1.21,4.45-2.61,8.98-4.84,12.95-.98,1.75-4.54,3.4-6.41,2.94-1.92-.47-3.76-3.34-4.59-5.55-.68-1.82-.22-4.33.39-6.34,3.72-12.37,7.49-24.73,11.5-37,2.42-7.41,5.42-14.99,8.09-22.68Z"/>
    <path class="st29" d="M267.93,1465.73c-.7-5.66-.16-9.57-.8-14.72,3.05-1.37,5.09-2.29,7.46-3.42.8.21,1.54.53,1.71,1.04,4.73,13.83,15.47,22.38,26.74,30.46,5.36,3.84,10.44,7.79,10.52,15.74-1.24,1.65-2.33,2.74-3.79,3.84-5.03,1.05-7.91-.95-9.9-5.13-.88-1.85-2.24-3.89-3.94-4.85-10.07-5.66-20.64-13.92-28.01-22.95Z"/>
    <path class="st21" d="M240.08,1406.78c-3.39,1.39-6.79,2.78-10.43,4.34-8.29,2-13.36.3-16.16-5.18-2.79-5.45-1.7-11.94,4.49-16.35,8.1-5.76,12.36-13.42,15.41-22.52,2.76-8.24,11.68-13.1,20.3-12.22,9.68,1,15.82,6.55,16.99,16.02-1.74,1.1-3.44,1.6-4.45,2.72-3.65,4.06-8.17,5.18-13.39,4.93-1.7-.08-4.3.12-4.96,1.16-.82,1.31-.15,3.62.02,5.48.21,2.33,1.52,5.08.69,6.87-2.38,5.12-5.61,9.85-8.5,14.74Z"/>
    <path class="st29" d="M240.08,1406.78c2.7-5.17,5.93-9.9,8.31-15.03.83-1.79-.48-4.55-.69-6.87-.17-1.86-.84-4.17-.02-5.48.65-1.04,3.25-1.24,4.96-1.16,5.22.25,9.74-.87,13.39-4.93,1.01-1.12,2.71-1.62,4.46-2.31.41,2.74-.26,5.66.65,7.96,2.55,6.48-.71,11.5-3.59,16.52-1.01,1.76-3.35,3.41-5.36,3.84-7.58,1.64-8.13,2.87-6.03,11.27-1.16,3.89-4.17,2.55-6.29,1.69-3.35-1.37-6.42-3.44-9.8-5.5Z"/>
    <path class="st21" d="M184.99,1585.62c3.96,3.9,7.28,7.64,10.99,12.07-1.06,6.33.6,11.53,5.96,14.99.95.62,1.83,1.79,2.39,3.05.48,1.07,0,2.33-1.06,2.82-1.63.76-3.32,1.5-4.4,1.02-5.33-2.41-11.03-4.83-15.25-8.71-12.24-11.25-11.98-11.62-.45-23.35.46-.47,1.11-1.2,1.81-1.89Z"/>
    <path class="st21" d="M275.44,1603.42c4.31-1.75,7.82-2.7,12.53-4.27.62-.23.83-.43.91-.31,3.68,6,10.98,6.97,17.05,8.62,1.12.3,2.06,1.3,2.95,2.43,1.23,1.55.93,3.84-.67,5-.77.55-1.55,1.01-2.4,1.18-6.84,1.41-13.77,2.32-20.67,3.43-4.41.71-6.95-.84-7.56-5.55-.42-3.27-1.27-6.94-2.14-10.54Z"/>
    <path class="st29" d="M342.19,1585.21c-3.51,3.02-7.23,5.84-10.46,9.14-2.35,2.41-3.99,5.14-.67,8.62,2.33,2.45,1.91,5.36-2,6.38-1.9.5-3.91.86-5.86.8-5.76-.19-8.12-3.47-6.44-8.97,2.88-9.44,5.14-19.24,13.67-26.62,1.25-8.46,2.16-16.27,3.06-24.09-13.09-1.27-19.15-6.93-19.21-18.48-.01-2.19,1.35-4.39,2.07-6.59,1.48,1.68,3.4,3.14,4.38,5.07,4.04,8.02,13.28,14.43,20.37,12,11.75-4.02,23.59-3.05,35.51-3.01,2.86,0,5.44-1.2,8.69-1.72,5.43-2.02,9.99-.86,14.62,2.25,5.29,3.56,11.39,5.9,17.13,8.77-1.57,6.78-3.14,13.55-4.69,20.68-1.26,5.84,1.78,10.05,4.55,14.05,4.76,6.88,10.16,13.31,14.97,20.16.69.99.18,3.88-.8,4.79-3.55,3.3-9.66,1.49-13.62-3.83-5.93-7.95-11.76-15.98-17.92-24.58-.5-2.37-.71-4.13-1.22-6.25-11.67-1.43-23.06-2.41-34.42-3.66-2.04-.22-3.95-1.57-6.13-2.48-.43,1.14-1.05,2.8-1.92,4.67-4.72,4.44-9.2,8.66-13.67,12.88Z"/>
    <path class="st29" d="M394.54,1530.81c.35-12.55,14.46-25.33,25.59-22.83,3.26.73,6.1,3.52,9.03,5.5,2.69,1.81,5,4.63,7.94,5.54,4.9,1.52,6.11,5.32,5.95,9.08-.18,4.33-3.47,7-8.01,7.51-.99.11-2.03.31-2.98.12-6.44-1.35-10.5,1.49-13.47,7.51-8.2-3.94-16.3-8.16-24.04-12.42Z"/>
    <path class="st21" d="M309.78,1498.67c1.09-1.1,2.42-2.53,3.79-3.84,2.75,2.96,4.88,7.01,7.88,9.54,19.35,16.36,41.7,26.14,66.76,29.99,3.83.59,4.15-2.45,6.45-3.87,8.1,4.22,15.84,8.48,23.93,12.74-.19,1.73-.73,3.48-1.52,5.54-6-2.56-12.1-4.9-17.38-8.46-4.63-3.11-8.9-4.02-14.62-2.25-5.99-1.48-11.42-2.34-16.59-4.01-22.2-7.2-42.67-17.96-58.7-35.38Z"/>
    <path class="st4" d="M341.8,1585.54c4.4-4.58,9.13-8.98,14.06-13.21,2.67.15,4.78.81,7,.98-1.61,4-3,8.09-4.8,12-3.59,7.83-2.09,14.33,4.42,17.69,1.08.56,2.35,2.45,2.12,3.36-.27,1.05-1.99,2.04-3.28,2.47-5.23,1.76-9.85-.09-12.36-5.47-2.6-5.56-4.82-11.75-7.15-17.83Z"/>
    <path class="st4" d="M398.33,1573.8c.21,1.76.82,3.45,1.08,5.6-2.11,5.59-4.69,11.52-6.78,16.76-1.1,2.76-1.52,5.41,1.61,7.47.84.55,1.64,2.54,1.27,3.24-.59,1.12-2.13,2.36-3.35,2.45-10.76.78-13.96-1.99-10.86-12.31,2.14-7.12,3.97-14.82,6.27-22.44,3.95-.45,7.24-.73,10.76-.76Z"/>
    <path class="st10" d="M398.33,1573.8c-3.22.38-6.99.73-10.98.76-8.15-.4-15.83-.81-23.98-1.22-2.68-.17-5.1-.64-7.52-1.02.41-1.87,1.49-3.53,1.92-4.67,2.18.92,4.1,2.26,6.13,2.48,11.36,1.25,22.74,2.24,34.42,3.66Z"/>
    <path class="st21" d="M473.45,1296.62l1.55,23.2,1.97,21.72,1.88,36.5,44.06,9.02.65-36.21,2.9-34.72.51-10.03s-.11-2.21,1-3.97,1.83-3.62,1.83-3.62l-2.9-1.31s-1.87-.72-3.83-.78-7.5-.17-7.5-.17l-42.14.36Z"/>
    <path class="st21" d="M710.33,1386.57l11.08-1s-.52-14.06-.77-16.1c-.35-2.86-.55-4.4-.65-5.17-.06-.45-.23-.87-.5-1.24l-.49-.68-.38-.82c-.15-.32-.22-.66-.23-1.01l-.82-107.68s3.27-1.54,3.27-6.64-4-4.01-6.16-4.13-6.13-.31-6.17,3.95c-.06,6.43,3.33,6.36,3.33,6.36l.87,107.88c0,.45-.12.9-.35,1.29l-.3.5-.38.48c-.34.44-.57.95-.66,1.5l-.86,5.13.16,17.36Z"/>
    <path class="st30" d="M638.71,1352.54c-.58.06-1.16.12-1.74.18-7.03-2.14-14.95-3.36-21.95-6.34-3.2-3.02-6.36-6.2-8.97-9.97-.12-.36-.72-.9-1.01-1-1.6-12.69-7.25-24.32-9.22-36.85.09-15.88,3.05-32.79,21.25-36.8,2.59-16.83,12.81-48.84,35.83-38.11,8.84,4.78,10.83,19.02,12.52,28.19.36,5.29,2.97,6.79,7.51,6.8,2.91,1.27,5.27,3.53,7.98,4.99.02.41.69.88,1,.97,6.23,9.72,6.96,22.78,1.38,33.51-.75,1.44-.6,4.14.29,5.5,17.21,23.93-10.88,52.43-36.45,48.63"/>
    <path class="st11" d="M637.71,1391.51l10.75-.87-1.65-28.92.23-17.62v-12.34s10.82-16.07,11.78-17.61,2.31-3.68,2.51-5.68.27-2.5.27-2.5c0,0-.79-2.03-2.84.57s-11.33,14.36-11.33,14.36c0,0-1.02-21.65-1.24-25.03-.22-3.38-.18-5-1.27-6.32s-1.58-1.97-1.58-1.97l-1.34,1.97s-.85,1.05-.94,3.21-.72,20.93-.76,22-.17,4.98-.17,4.98c0,0-5.96-5.51-8.13-8.75s-2.57-4.57-4.44-5.11-2.42-.01-2.3.96.61,3.86,1.43,5.69,2.43,3.81,3.18,5.27,7.16,7.8,8.69,13.97c1.53,6.16.91,10.96.73,17.46-.18,6.5-.98,32.87-1.15,35.8-.17,2.93-.4,6.49-.4,6.49Z"/>
    <path class="st4" d="M640.32,1319.91"/>
    <path class="st4" d="M659.65,1305.4c-3.87,4.9-7.74,9.81-12.23,15.49"/>
    <path class="st13" d="M497.18,1277.14c.09-.56.1-.81.2-1.42,4.33,2.49,8.57,5.34,12.85,8.54-.94,2.4-1.6,4.7-2.97,6.44-1.47,1.88-3.6,3.24-5.73,5.08-1-.95-2.02-1.92-3.5-3.32-.82-.59-1.2-.75-1.57-.92-1.68-2.32-3.35-4.63-5.3-7.32,1.94-2.21,3.94-4.49,6.01-7.09Z"/>
    <path class="st9" d="M159.73,1266.81c-10.83.15-22.57.38-32.96-3.6-12.83-4.91-22.46-12.88-26.19-26.63-.86-3.18-2.44-4.94-5.72-6.07-27.56-9.47-42.66-29.58-47.69-57.61-3.22-17.94.17-34.87,10.95-49.77,6.93-9.57,16.08-16.21,28.08-18.51,1.53-.29,3.46-2.9,3.74-4.67,2.15-13.24,5.75-26.01,12.1-37.85,13.06-24.34,32.48-40.61,60.47-43.87,23.04-2.68,43.81,3.93,61.28,19.7,13.7,12.37,22.79,27.64,25.43,45.79,1.21,8.34,4.65,9.89,12.01,11.73,17.34,4.34,27.26,17.1,31.8,33.97,5.07,18.83.88,36.34-9.16,52.48-4.08,6.55-4.94,12.63-4.13,20.39,2.37,22.59-6.61,40.89-24.49,54.77-13.93,10.81-30.01,16.11-47.42,15.4-9.45-.38-24.37-5.25-28.74-6.4,0,0-.29-3.51-.12-5.56.64-5.47,2.4-8.91,4.69-12.44,11.41-17.6,23.21-34.95,34.88-52.38.83-1.24,2.15-2.41,2.37-3.75.24-1.41-.11-3.58-1.06-4.33-.86-.67-3.3-.41-4.29.39-2.04,1.64-3.63,3.87-5.33,5.92-10.7,12.97-20.53,24.65-31.39,37.25-.9,1.02-2.03,1.68-2.03-.27-.05-27.39-1.49-56.25-1.59-83.64-.13-1.19-.05-4.51-.39-8.11-1-3.71-3.62-3.75-4.71-3.25-1.44.66-1.89,3.15-2.05,5.01-1.81,20.54-3.28,39.87-4.97,60.41-.16,1.99-.69,3.94-1.21,6.77-2.12-2.47-4.61-5.04-5.87-6.76-8.63-11.82-16.45-21.82-25.03-33.68-.88-1.21-2.07-2.33-3.22-3.1-1.13-.76-3.24-1.4-4.01-.8-.34.95-.3,1.81-.18,3.23.32,1.16,1.65,2.34,2.21,3.53,8.91,14.43,18.25,28.77,26.6,43.51,3.69,6.52,6.68,14.4,7.54,21.72,1.19,10.14-.03,20.77-.21,31.07Z"/>
    <polygon class="st3" points="806.95 1341.61 845.21 1342.05 844.76 1366.53 810.72 1366.53 806.95 1341.61"/>
  </g>
  <g id="Lager_8">
    <g class="st31">
      <g id="Lager_9">
        <ellipse class="st12" cx="248.74" cy="1068.27" rx="168.83" ry="172.09"/>
      </g>
    </g>
  </g>
  <g id="Lager_3">
    <g id="Moln">
      <g id="Moln1">
        <path class="st8" d="M733.74,161.17c-9.06-24.94-45.19-35.83-72.19-22-12.55-33.65-50.07-32.32-61.17,2.15-23.39-11.17-52.32,1.85-56.43,25.91-27.4.09-49.11,15.8-49.07,34.69.06,21.16,27.88,36.9,57.54,32.53,13.9,27.13,69.55,33.07,96.15,10.04,20.34,22.96,69.55,17.03,77.98-9.63,32.2,10.35,73.42-4.76,73.42-35.92,0-28.64-34.96-44.01-66.23-37.78"/>
        <g id="Moln_high_0">
          <path class="st23" d="M798.59,189.46c-12-15.79-37.93-23.05-61.79-18.37-9.39-25.37-46.79-36.45-74.76-22.38-13-34.23-51.85-32.88-63.35,2.18-20.4-9.57-44.91-1.67-54.63,15.7,4.51-23.67,33.14-36.35,56.31-25.28,11.1-34.47,48.62-35.8,61.17-2.14,27-13.83,63.11-2.94,72.19,21.99,27.62-5.49,58.11,5.84,64.85,28.29"/>
          <g id="Moln_high_4">
            <g class="st15">
              <path class="st23" d="M722.82,179.03c14.92-22.89,44.03-24.09,60.81-2.68-19.2-9.96-42.55-8.93-60.81,2.68"/>
            </g>
          </g>
          <path id="Moln_hight_1" class="st23" d="M581.21,188.03c14.91-22.89,44.03-24.09,60.81-2.69-19.2-9.96-42.55-8.93-60.81,2.69"/>
          <path id="Moln_high_2" class="st23" d="M655.25,156.21c13.18-23.93,42.12-27.29,60.44-7.18-19.89-8.51-43.09-5.76-60.44,7.18"/>
          <path id="Moln_high_3" class="st23" d="M543.72,167.23c-1.65,3.07-2.82,6.41-3.44,10.02-19.38.06-36.01,7.53-44.59,18.38,4.13-15.91,23.86-28.24,48.04-28.4"/>
          <path id="Moln_high_5" class="st23" d="M547.12,158.26c14.69-23.03,43.79-24.53,60.78-3.28-19.3-9.77-42.64-8.51-60.78,3.28"/>
        </g>
      </g>
      <g id="Moln2">
        <path class="st8" d="M177.67,274.95c-8.42-29.67-41.97-42.63-67.05-26.17-11.65-40.03-46.5-38.45-56.81,2.56-21.72-13.28-48.59,2.2-52.4,30.82-25.44.11-45.61,18.8-45.57,41.27.05,25.17,25.89,43.9,53.44,38.7,12.91,32.27,64.59,39.34,89.29,11.95,18.89,27.32,64.59,20.25,72.43-11.45,29.91,12.32,68.18-5.66,68.18-42.73,0-34.07-32.47-52.35-61.51-44.94"/>
        <g id="Moln_high_01">
          <path class="st23" d="M237.9,308.61c-11.14-18.79-35.22-27.42-57.38-21.85-8.72-30.18-43.46-43.36-69.43-26.62-12.07-40.72-48.16-39.11-58.83,2.59-18.95-11.38-41.71-1.98-50.74,18.68,4.18-28.15,30.77-43.24,52.3-30.07,10.31-41.01,45.15-42.59,56.81-2.55,25.08-16.45,58.62-3.49,67.04,26.17,25.65-6.53,53.97,6.95,60.23,33.66"/>
          <g id="Moln_high_41">
            <g class="st18">
              <path class="st23" d="M167.53,296.2c13.85-27.22,40.89-28.66,56.47-3.19-17.83-11.85-39.52-10.63-56.47,3.19"/>
            </g>
          </g>
          <path id="Moln_hight_11" class="st23" d="M36.02,306.9c13.85-27.22,40.89-28.66,56.47-3.2-17.83-11.85-39.52-10.62-56.47,3.2"/>
          <path id="Moln_high_21" class="st23" d="M104.78,269.05c12.24-28.47,39.12-32.46,56.13-8.54-18.47-10.12-40.02-6.85-56.13,8.54"/>
          <path id="Moln_high_31" class="st23" d="M1.2,282.16c-1.53,3.65-2.62,7.63-3.2,11.92-18,.07-33.44,8.96-41.41,21.87,3.84-18.93,22.16-33.6,44.61-33.79"/>
          <path id="Moln_high_51" class="st23" d="M4.36,271.5c13.64-27.4,40.67-29.18,56.44-3.9-17.92-11.62-39.6-10.12-56.44,3.9"/>
        </g>
        <g id="Moln3">
          <path class="st8" d="M106.31,285.51c10.11-30.21,50.4-43.41,80.51-26.65,13.99-40.77,55.84-39.16,68.21,2.61,26.08-13.53,58.35,2.24,62.93,31.39,30.55.11,54.77,19.14,54.72,42.03-.06,25.63-31.09,44.71-64.17,39.41-15.5,32.86-77.56,40.07-107.22,12.17-22.69,27.82-77.56,20.63-86.97-11.66-35.91,12.54-81.88-5.76-81.88-43.52,0-34.7,38.99-53.31,73.86-45.77"/>
          <g id="Moln_high_02">
            <path class="st23" d="M33.99,319.79c13.38-19.13,42.3-27.92,68.91-22.26,10.47-30.74,52.18-44.16,83.37-27.11,14.5-41.47,57.83-39.84,70.65,2.64,22.75-11.59,50.08-2.02,60.92,19.03-5.02-28.67-36.95-44.04-62.8-30.63-12.38-41.77-54.22-43.38-68.21-2.59-30.11-16.75-70.39-3.56-80.5,26.65-30.8-6.65-64.8,7.08-72.33,34.28"/>
            <g id="Moln_high_42">
              <g class="st16">
                <path class="st23" d="M118.49,307.16c-16.64-27.73-49.1-29.19-67.81-3.25,21.42-12.06,47.45-10.82,67.81,3.25"/>
              </g>
            </g>
            <path id="Moln_hight_12" class="st23" d="M276.41,318.06c-16.63-27.73-49.1-29.19-67.81-3.26,21.42-12.06,47.45-10.82,67.81,3.26"/>
            <path id="Moln_high_22" class="st23" d="M193.84,279.51c-14.7-28.99-46.97-33.06-67.4-8.7,22.18-10.31,48.06-6.97,67.4,8.7"/>
            <path id="Moln_high_32" class="st23" d="M318.23,292.86c1.84,3.72,3.15,7.77,3.84,12.14,21.61.07,40.16,9.12,49.73,22.27-4.61-19.28-26.61-34.22-53.57-34.41"/>
            <path id="Moln_high_52" class="st23" d="M314.43,281.99c-16.38-27.9-48.84-29.71-67.78-3.98,21.52-11.84,47.55-10.31,67.78,3.98"/>
          </g>
        </g>
      </g>
    </g>
    <g id="Moln_2_x2">
      <path class="st8" d="M978.5,371.34c8.1-29.67,40.35-42.63,64.46-26.17,11.2-40.03,44.71-38.45,54.62,2.56,20.88-13.28,46.72,2.2,50.38,30.82,24.46.11,43.85,18.8,43.81,41.27-.05,25.17-24.89,43.9-51.38,38.7-12.41,32.27-62.1,39.34-85.85,11.95-18.16,27.32-62.1,20.25-69.64-11.45-28.76,12.32-65.55-5.66-65.55-42.73,0-34.07,31.22-52.35,59.14-44.94"/>
      <g id="Moln_high_011" data-name="Moln_high_01">
        <path class="st23" d="M920.59,405c10.71-18.79,33.86-27.42,55.17-21.85,8.38-30.18,41.78-43.36,66.75-26.62,11.6-40.72,46.3-39.11,56.56,2.59,18.22-11.38,40.1-1.98,48.78,18.68-4.02-28.15-29.58-43.24-50.28-30.07-9.91-41.01-43.41-42.59-54.62-2.55-24.11-16.45-56.36-3.49-64.45,26.17-24.66-6.53-51.89,6.95-57.91,33.66"/>
        <g id="Moln_high_411" data-name="Moln_high_41">
          <g class="st17">
            <path class="st23" d="M988.25,392.59c-13.32-27.22-39.31-28.66-54.29-3.19,17.14-11.85,38-10.63,54.29,3.19"/>
          </g>
        </g>
        <path id="Moln_hight_111" data-name="Moln_hight_11" class="st23" d="M1114.69,403.29c-13.32-27.22-39.31-28.66-54.29-3.2,17.14-11.85,38-10.62,54.29,3.2"/>
        <path id="Moln_high_211" data-name="Moln_high_21" class="st23" d="M1048.58,365.44c-11.77-28.47-37.61-32.46-53.97-8.54,17.76-10.12,38.48-6.85,53.97,8.54"/>
        <path id="Moln_high_311" data-name="Moln_high_31" class="st23" d="M1148.16,378.55c1.47,3.65,2.52,7.63,3.08,11.92,17.31.07,32.15,8.96,39.81,21.87-3.69-18.93-21.31-33.6-42.89-33.79"/>
        <path id="Moln_high_511" data-name="Moln_high_51" class="st23" d="M1145.13,367.89c-13.11-27.4-39.1-29.18-54.26-3.9,17.23-11.62,38.07-10.12,54.26,3.9"/>
      </g>
      <g id="Moln31" data-name="Moln3">
        <path class="st8" d="M1047.11,381.9c-9.72-30.21-48.46-43.41-77.41-26.65-13.45-40.77-53.69-39.16-65.58,2.61-25.07-13.53-56.1,2.24-60.5,31.39-29.37.11-52.66,19.14-52.61,42.03.06,25.63,29.89,44.71,61.7,39.41,14.9,32.86,74.57,40.07,103.09,12.17,21.82,27.82,74.57,20.63,83.62-11.66,34.53,12.54,78.72-5.76,78.72-43.52,0-34.7-37.49-53.31-71.01-45.77"/>
        <g id="Moln_high_021" data-name="Moln_high_02">
          <path class="st23" d="M1116.64,416.18c-12.86-19.13-40.67-27.92-66.25-22.26-10.07-30.74-50.17-44.16-80.16-27.11-13.94-41.47-55.6-39.84-67.93,2.64-21.87-11.59-48.15-2.02-58.57,19.03,4.83-28.67,35.53-44.04,60.38-30.63,11.9-41.77,52.13-43.38,65.58-2.59,28.95-16.75,67.68-3.56,77.4,26.65,29.61-6.65,62.3,7.08,69.54,34.28"/>
          <g id="Moln_high_421" data-name="Moln_high_42">
            <g class="st20">
              <path class="st23" d="M1035.4,403.55c16-27.73,47.21-29.19,65.2-3.25-20.59-12.06-45.62-10.82-65.2,3.25"/>
            </g>
          </g>
          <path id="Moln_hight_121" data-name="Moln_hight_12" class="st23" d="M883.57,414.45c15.99-27.73,47.21-29.19,65.2-3.26-20.59-12.06-45.62-10.82-65.2,3.26"/>
          <path id="Moln_high_221" data-name="Moln_high_22" class="st23" d="M962.95,375.9c14.13-28.99,45.16-33.06,64.8-8.7-21.32-10.31-46.21-6.97-64.8,8.7"/>
          <path id="Moln_high_321" data-name="Moln_high_32" class="st23" d="M843.36,389.25c-1.77,3.72-3.03,7.77-3.69,12.14-20.78.07-38.61,9.12-47.81,22.27,4.43-19.28,25.58-34.22,51.5-34.41"/>
          <path id="Moln_high_521" data-name="Moln_high_52" class="st23" d="M847.01,378.38c15.75-27.9,46.96-29.71,65.17-3.98-20.69-11.84-45.72-10.31-65.17,3.98"/>
        </g>
      </g>
    </g>
  </g>
  <g id="Lager_5">
    <g class="st19">
      <g id="Lager_6">
        <ellipse class="st27" cx="627.56" cy="1249.17" rx="69.87" ry="84.51"/>
      </g>
    </g>
  </g>
  <g id="Lager_7">
    <path class="st11" d="M637.71,1391.51l10.75-.87-1.65-28.92.23-17.62v-12.34s10.82-16.07,11.78-17.61,2.31-3.68,2.51-5.68.27-2.5.27-2.5c0,0-.79-2.03-2.84.57s-11.33,14.36-11.33,14.36c0,0-1.02-21.65-1.24-25.03-.22-3.38-.18-5-1.27-6.32s-1.58-1.97-1.58-1.97l-1.34,1.97s-.85,1.05-.94,3.21-.72,20.93-.76,22-.17,4.98-.17,4.98c0,0-5.96-5.51-8.13-8.75s-2.57-4.57-4.44-5.11-2.42-.01-2.3.96.61,3.86,1.43,5.69,2.43,3.81,3.18,5.27,7.16,7.8,8.69,13.97c1.53,6.16.91,10.96.73,17.46-.18,6.5-.98,32.87-1.15,35.8-.17,2.93-.4,6.49-.4,6.49Z"/>
  </g>
</svg>